<svg height='100px' width='100px'  fill="#ffffff" xmlns="http://www.w3.org/2000/svg" viewBox="0 0 25 25" x="0px" y="0px"><g><path d="M12.319,11.463h6.22a2.929,2.929,0,0,0,2.48-1.16,2.51,2.51,0,0,0,0-2.52,4.943,4.943,0,0,0-3.78-3.25,1.145,1.145,0,0,1-.79-.67.611.611,0,0,0-.46-.35.585.585,0,0,0-.37.06.7.7,0,0,0-1.05.37.649.649,0,0,1-.42.49,5.415,5.415,0,0,0-4.31,3.35,2.535,2.535,0,0,0,0,2.52A2.929,2.929,0,0,0,12.319,11.463Zm3.67-6.18a.242.242,0,0,1,.35-.02l.78.73a.242.242,0,0,1,.01.35.217.217,0,0,1-.18.08.272.272,0,0,1-.17-.06L16,5.633A.251.251,0,0,1,15.989,5.283Zm-1.77.76.47-.73a.25.25,0,0,1,.42.27l-.47.73a.248.248,0,0,1-.21.11.22.22,0,0,1-.13-.04A.244.244,0,0,1,14.219,6.043Zm8.17,11.48a5.938,5.938,0,0,0-4.73-3.68c-.21-.05-.36-.22-.47-.52a.789.789,0,0,0-.58-.51.845.845,0,0,0-.56.1.61.61,0,0,0-.4-.06.675.675,0,0,0-.51.37,1.318,1.318,0,0,1-.89.73c-.29.08-.57.16-.83.25q-.255.09-.48.18a5.368,5.368,0,0,0-2.83,3.14,3.771,3.771,0,0,0-.31.98,3.13,3.13,0,0,0-.05.5,2.219,2.219,0,0,0,.35,1.28,3.213,3.213,0,0,0,2.72,1.26h6.86a3.213,3.213,0,0,0,2.72-1.26A2.759,2.759,0,0,0,22.389,17.523Zm-6.79-2.4-.86.8a.234.234,0,0,1-.17.07.269.269,0,0,1-.18-.08.242.242,0,0,1,.01-.35l.86-.81a.264.264,0,0,1,.36.02A.251.251,0,0,1,15.6,15.123Zm1.89.83a.23.23,0,0,1-.14.04.247.247,0,0,1-.21-.12l-.51-.8a.243.243,0,0,1,.07-.34.255.255,0,0,1,.35.07l.51.8A.253.253,0,0,1,17.489,15.953Zm-4.75-2.03c.12-.05.25-.1.37-.14a5.836,5.836,0,0,0-3.52-1.94q-.27-.06-.42-.48a.782.782,0,0,0-.56-.48.763.763,0,0,0-.51.1.783.783,0,0,0-.38-.07.661.661,0,0,0-.48.36,1.2,1.2,0,0,1-.8.67,5.018,5.018,0,0,0-3.86,3.31,2.6,2.6,0,0,0,0,2.58A2.993,2.993,0,0,0,5.109,19h4.14v-.01a3.073,3.073,0,0,1,.06-.57,3.985,3.985,0,0,1,.35-1.11A5.851,5.851,0,0,1,12.739,13.923Zm-5.04-.87-.8.74a.219.219,0,0,1-.17.07.23.23,0,0,1-.18-.08.251.251,0,0,1,.01-.35l.8-.74a.248.248,0,0,1,.34.36Zm1.74.77a.23.23,0,0,1-.14.04.261.261,0,0,1-.21-.11l-.47-.74a.252.252,0,0,1,.42-.28l.47.75A.235.235,0,0,1,9.439,13.823Z"></path></g></svg>